<svg width="32" height="32" viewBox="0 0 32 32" fill="none" xmlns="http://www.w3.org/2000/svg">
<g clip-path="url(#clip0)">
<path d="M31.8992 18.3547L27.6641 12.488C27.5638 12.3492 27.4031 12.2669 27.232 12.2667H19.7333C19.4388 12.2667 19.2 12.5055 19.2 12.8V21.8667H18.6667V9.06667H16.5333V0H2.66667V9.06667H0.533333V21.8667C0.238802 21.8667 0 22.1055 0 22.4V28.8C0 29.0945 0.238802 29.3333 0.533333 29.3333H2.66667C2.9612 29.3333 3.2 29.0945 3.2 28.8C3.2 26.738 4.87135 25.0667 6.93333 25.0667C8.99531 25.0667 10.6667 26.738 10.6667 28.8C10.6667 29.0945 10.9055 29.3333 11.2 29.3333H21.3333C21.6279 29.3333 21.8667 29.0945 21.8667 28.8C21.8667 26.738 23.538 25.0667 25.6 25.0667C27.662 25.0667 29.3333 26.738 29.3333 28.8C29.3333 29.0945 29.5721 29.3333 29.8667 29.3333H31.4667C31.7612 29.3333 32 29.0945 32 28.8V18.6667C32 18.5547 31.9648 18.4456 31.8992 18.3547ZM10.1333 1.06667V2.87031L9.6 2.60365L9.06667 2.87031V1.06667H10.1333ZM3.73333 1.06667H8V4.59635L9.6 3.79635L11.2 4.59635V1.06667H15.4667V9.06667H3.73333V1.06667ZM8.53333 10.1333H10.6667V12.8698L9.6 12.1599L8.53333 12.8708V10.1333ZM1.6 10.1333H7.46667V14.8635L9.6 13.4401L11.7333 14.8625V10.1333H17.6V21.8667H1.6V10.1333ZM6.93333 24C4.48984 24.0029 2.4375 25.8388 2.16328 28.2667H1.06667V22.9333H19.2V28.2667H11.7034C11.4292 25.8388 9.37682 24.0029 6.93333 24ZM30.9333 28.2667H30.3685C30.0898 25.844 28.0385 24.0154 25.6 24.0154C23.1615 24.0154 21.1102 25.844 20.8315 28.2667H20.2667V13.3333H26.9589L30.9333 18.8391V28.2667Z" fill="#C4C4C4"/>
<path d="M26.4566 13.8667H21.3334C21.0389 13.8667 20.8 14.1055 20.8 14.4V19.2C20.8 19.4945 21.0389 19.7333 21.3334 19.7333H29.8667C30.0662 19.7333 30.249 19.6219 30.3404 19.4445C30.4321 19.2675 30.417 19.0539 30.3014 18.8911L26.8917 14.0911C26.7917 13.9503 26.6295 13.8667 26.4566 13.8667ZM21.8667 18.6667V14.9333H26.1813L28.8331 18.6667H21.8667Z" fill="#C4C4C4"/>
<path d="M6.9334 25.6C5.16621 25.6 3.7334 27.0328 3.7334 28.8C3.7334 30.5672 5.16621 32 6.9334 32C8.70059 32 10.1334 30.5672 10.1334 28.8C10.1316 27.0333 8.70007 25.6018 6.9334 25.6ZM6.9334 30.9333C5.75527 30.9333 4.80007 29.9781 4.80007 28.8C4.80007 27.6219 5.75527 26.6667 6.9334 26.6667C8.11152 26.6667 9.06673 27.6219 9.06673 28.8C9.06673 29.9781 8.11152 30.9333 6.9334 30.9333Z" fill="#C4C4C4"/>
<path d="M25.5999 25.6C23.8327 25.6 22.3999 27.0328 22.3999 28.8C22.3999 30.5672 23.8327 32 25.5999 32C27.3671 32 28.7999 30.5672 28.7999 28.8C28.7981 27.0333 27.3666 25.6018 25.5999 25.6ZM25.5999 30.9333C24.4218 30.9333 23.4666 29.9781 23.4666 28.8C23.4666 27.6219 24.4218 26.6667 25.5999 26.6667C26.778 26.6667 27.7332 27.6219 27.7332 28.8C27.7332 29.9781 26.778 30.9333 25.5999 30.9333Z" fill="#C4C4C4"/>
<path d="M25.6 27.2C24.7164 27.2 24 27.9164 24 28.8C24 29.6836 24.7164 30.4 25.6 30.4C26.4836 30.4 27.2 29.6836 27.2 28.8C27.2 27.9164 26.4836 27.2 25.6 27.2ZM25.6 29.3333C25.3055 29.3333 25.0667 29.0945 25.0667 28.8C25.0667 28.5055 25.3055 28.2666 25.6 28.2666C25.8945 28.2666 26.1333 28.5055 26.1333 28.8C26.1333 29.0945 25.8945 29.3333 25.6 29.3333Z" fill="#C4C4C4"/>
<path d="M6.93325 27.2C6.04966 27.2 5.33325 27.9164 5.33325 28.8C5.33325 29.6836 6.04966 30.4 6.93325 30.4C7.81685 30.4 8.53325 29.6836 8.53325 28.8C8.53325 27.9164 7.81685 27.2 6.93325 27.2ZM6.93325 29.3333C6.63872 29.3333 6.39992 29.0945 6.39992 28.8C6.39992 28.5055 6.63872 28.2666 6.93325 28.2666C7.22778 28.2666 7.46659 28.5055 7.46659 28.8C7.46659 29.0945 7.22778 29.3333 6.93325 29.3333Z" fill="#C4C4C4"/>
<path d="M11.7334 19.7333H12.8001V20.8H11.7334V19.7333Z" fill="#C4C4C4"/>
<path d="M13.3333 19.7333H15.9999V20.8H13.3333V19.7333Z" fill="#C4C4C4"/>
<path d="M11.7334 18.1333H12.8001V19.2H11.7334V18.1333Z" fill="#C4C4C4"/>
<path d="M13.3333 18.1333H15.9999V19.2H13.3333V18.1333Z" fill="#C4C4C4"/>
<path d="M10.6667 7.46667H11.7334V8.53334H10.6667V7.46667Z" fill="#C4C4C4"/>
<path d="M12.2666 7.46667H14.9333V8.53334H12.2666V7.46667Z" fill="#C4C4C4"/>
<path d="M10.6667 5.86667H11.7334V6.93333H10.6667V5.86667Z" fill="#C4C4C4"/>
<path d="M12.2666 5.86667H14.9333V6.93333H12.2666V5.86667Z" fill="#C4C4C4"/>
<path d="M22.9334 20.2667H22.4C22.1055 20.2667 21.8667 20.5055 21.8667 20.8C21.8667 21.0945 22.1055 21.3333 22.4 21.3333H22.9334C23.2279 21.3333 23.4667 21.0945 23.4667 20.8C23.4667 20.5055 23.2279 20.2667 22.9334 20.2667Z" fill="#C4C4C4"/>
</g>
<defs>
<clipPath id="clip0">
<rect width="32" height="32" fill="white"/>
</clipPath>
</defs>
</svg>
