<svg width="224" height="32" viewBox="0 0 224 32" fill="none" xmlns="http://www.w3.org/2000/svg">
<g clip-path="url(#clip0)">
<path d="M15.2125 19.2698C13.9721 19.1405 12.8537 18.835 11.8962 18.0861C11.7774 17.9929 11.6548 17.9031 11.5463 17.7991C11.1272 17.3965 11.085 16.9356 11.4166 16.4605C11.7003 16.054 12.1766 15.9452 12.6716 16.1786C12.7674 16.2239 12.8588 16.2803 12.9462 16.341C14.7307 17.5671 17.1821 17.601 18.9733 16.3961C19.1508 16.2601 19.3405 16.1491 19.5603 16.0925C19.9878 15.9827 20.3865 16.1397 20.6159 16.5138C20.878 16.9409 20.8746 17.3578 20.5517 17.6895C20.0563 18.1979 19.4606 18.5657 18.7987 18.8224C18.1728 19.0651 17.4873 19.1872 16.8088 19.2683C16.9112 19.3798 16.9594 19.4346 17.0235 19.4989C17.9448 20.4246 18.8701 21.3464 19.7884 22.2749C20.1013 22.5913 20.1666 22.9836 19.9943 23.3516C19.806 23.7537 19.3844 24.0183 18.971 23.99C18.7091 23.9719 18.5048 23.8416 18.3233 23.6587C17.6281 22.9591 16.9197 22.2724 16.2385 21.5595C16.0403 21.3523 15.945 21.3915 15.77 21.5714C15.0706 22.2915 14.3597 23.0005 13.6447 23.7055C13.3236 24.022 12.9415 24.079 12.5692 23.8982C12.1734 23.7063 11.9215 23.3023 11.941 22.8963C11.9544 22.6216 12.0894 22.4118 12.278 22.2236C13.1897 21.3132 14.099 20.4004 15.0086 19.4885C15.0687 19.4279 15.1249 19.3635 15.2125 19.2698Z" fill="#C4C4C4"/>
<path d="M15.9682 16.0985C13.7554 16.091 11.9409 14.2566 11.9538 12.0402C11.9665 9.79946 13.7822 7.99369 16.0168 7.99989C18.2559 8.00593 20.0531 9.83766 20.0418 12.1017C20.0304 14.3135 18.2034 16.1062 15.9682 16.0985ZM17.9792 12.0456C17.9753 10.9451 17.0989 10.0691 16.0007 10.0681C14.8932 10.0669 14.0089 10.9589 14.0174 12.0694C14.0257 13.1657 14.9096 14.0355 16.0109 14.0315C17.1088 14.0276 17.9829 13.1459 17.9792 12.0456Z" fill="#C4C4C4"/>
</g>
<circle cx="16" cy="16" r="15.5" stroke="#C4C4C4"/>
<circle cx="64" cy="16" r="15.5" stroke="#C4C4C4"/>
<g clip-path="url(#clip1)">
<path d="M71.3374 18.8073C70.861 18.2359 70.3004 17.7482 69.77 17.2304C69.2914 16.7637 69.2613 16.4929 69.6459 15.9542C70.0658 15.3662 70.5173 14.8008 70.9409 14.2155C71.3364 13.6685 71.7406 13.123 71.9487 12.468C72.0807 12.0513 71.964 11.8673 71.5367 11.7943C71.4631 11.7816 71.387 11.7809 71.312 11.7809L68.7769 11.7779C68.4647 11.7733 68.2921 11.9094 68.1817 12.1862C68.0326 12.5602 67.8789 12.934 67.7013 13.2949C67.2984 14.1134 66.8484 14.9044 66.2175 15.5743C66.0784 15.7221 65.9245 15.9088 65.692 15.8318C65.4012 15.7257 65.3155 15.2465 65.3203 15.0845L65.3178 12.1585C65.2614 11.7405 65.1687 11.5541 64.7537 11.4728L62.1203 11.4733C61.7688 11.4733 61.5926 11.6091 61.4049 11.829C61.2966 11.956 61.2639 12.0384 61.4864 12.0805C61.9235 12.1634 62.1697 12.4463 62.2351 12.8845C62.3399 13.5848 62.3326 14.2878 62.2722 14.9908C62.2545 15.1961 62.2192 15.4009 62.1377 15.5926C62.0104 15.8938 61.8048 15.9552 61.5347 15.7698C61.2901 15.602 61.1183 15.3652 60.9502 15.1275C60.3186 14.2351 59.8147 13.2727 59.4039 12.2614C59.2851 11.9693 59.0804 11.7922 58.7708 11.7874C58.0102 11.7753 57.2495 11.7733 56.4889 11.788C56.0313 11.7967 55.8948 12.0189 56.0812 12.4337C56.9096 14.2764 57.8317 16.0678 59.0353 17.6997C59.6532 18.5372 60.3627 19.2765 61.2793 19.8005C62.3181 20.3944 63.4364 20.5732 64.6141 20.5181C65.1656 20.4922 65.3312 20.3488 65.3568 19.7992C65.374 19.4231 65.4166 19.0492 65.6022 18.7113C65.7842 18.3797 66.06 18.3165 66.3778 18.5227C66.5368 18.626 66.6708 18.7575 66.7973 18.8961C67.1077 19.2357 67.407 19.5856 67.7292 19.9137C68.1333 20.3249 68.612 20.5678 69.2138 20.5183L71.5438 20.5188C71.9192 20.4942 72.1139 20.0339 71.8983 19.6149C71.7469 19.3215 71.5483 19.0601 71.3374 18.8073Z" fill="#C4C4C4"/>
</g>
<circle cx="160" cy="16" r="15.5" stroke="#C4C4C4"/>
<path d="M154.054 8H165.946C167.076 8 168 8.83618 168 10.0535V21.9465C168 23.1638 167.076 24 165.946 24H154.054C152.924 24 152 23.1638 152 21.9465V10.0535C152 8.83618 152.924 8 154.054 8ZM163.655 9.77767C163.259 9.77767 162.935 10.1016 162.935 10.498V12.2221C162.935 12.6184 163.259 12.9425 163.655 12.9425H165.464C165.86 12.9425 166.184 12.6184 166.184 12.2221V10.498C166.184 10.1016 165.86 9.77767 165.464 9.77767H163.655ZM166.192 14.7663H164.783C164.917 15.2014 164.989 15.6622 164.989 16.1389C164.989 18.8002 162.762 20.9575 160.015 20.9575C157.269 20.9575 155.042 18.8002 155.042 16.1389C155.042 15.6618 155.114 15.2012 155.247 14.7663H153.778V21.525C153.778 21.8747 154.064 22.1611 154.414 22.1611H165.556C165.906 22.1611 166.192 21.8749 166.192 21.525V14.7663H166.192ZM160.015 12.8517C158.24 12.8517 156.802 14.2456 156.802 15.9653C156.802 17.6849 158.24 19.0788 160.015 19.0788C161.79 19.0788 163.229 17.6849 163.229 15.9653C163.229 14.2456 161.79 12.8517 160.015 12.8517Z" fill="#C4C4C4"/>
<circle cx="208" cy="16" r="15.5" stroke="#C4C4C4"/>
<path d="M215.724 12.2178C215.528 11.3669 214.832 10.7391 213.994 10.6454C212.01 10.424 210.002 10.4228 208.003 10.424C206.003 10.4228 203.995 10.424 202.011 10.6454C201.173 10.7391 200.478 11.3669 200.282 12.2178C200.003 13.4296 200 14.7523 200 16C200 17.2476 200 18.5702 200.279 19.7818C200.474 20.6326 201.17 21.2604 202.008 21.3542C203.992 21.5758 206 21.577 207.999 21.5758C209.999 21.577 212.007 21.5758 213.991 21.3542C214.828 21.2605 215.524 20.6327 215.72 19.7818C215.999 18.5701 216 17.2474 216 16C216 14.7523 216.002 13.4296 215.724 12.2178ZM205.935 18.4833C205.935 16.7135 205.935 14.9621 205.935 13.1921C207.631 14.0768 209.315 14.9557 211.022 15.8459C209.321 16.7282 207.635 17.6017 205.935 18.4833Z" fill="#C4C4C4"/>
<circle cx="112" cy="16" r="15.5" stroke="#C4C4C4"/>
<path d="M113 13.5V11.5C113 10.948 113.448 10.5 114 10.5H115V8H113C111.343 8 110 9.343 110 11V13.5H108V16H110V24H113V16H115L116 13.5H113Z" fill="#C4C4C4"/>
<defs>
<clipPath id="clip0">
<rect x="8" y="8" width="16" height="16" fill="white"/>
</clipPath>
<clipPath id="clip1">
<rect x="56" y="8" width="16" height="16" fill="white"/>
</clipPath>
</defs>
</svg>
