<svg width="40" height="40" viewBox="0 0 40 40" fill="none" xmlns="http://www.w3.org/2000/svg">
<path d="M20.0002 8.59933C15.9055 8.59933 12.5742 11.9307 12.5742 16.0253C12.5742 20.12 15.9055 23.4513 20.0002 23.4513C24.0949 23.4513 27.4262 20.12 27.4262 16.0253C27.4262 11.9307 24.095 8.59933 20.0002 8.59933ZM20.0002 20.3246C17.6296 20.3246 15.7009 18.396 15.7009 16.0253C15.7009 13.6547 17.6296 11.726 20.0002 11.726C22.3708 11.726 24.2995 13.6547 24.2995 16.0253C24.2995 18.396 22.3708 20.3246 20.0002 20.3246Z" fill="#80A05D"/>
<path d="M20.0012 0C11.1652 0 3.97656 7.18867 3.97656 16.0246V16.4676C3.97656 20.9363 6.53859 26.1438 11.5917 31.9452C15.2548 36.1508 18.8668 39.0833 19.0187 39.2061L20.0012 40L20.9837 39.2062C21.1356 39.0834 24.7476 36.1509 28.4106 31.9452C33.4637 26.1438 36.0258 20.9364 36.0258 16.4677V16.0247C36.0258 7.18867 28.8372 0 20.0012 0ZM32.8991 16.4677C32.8991 24.0196 23.1685 33.1614 20.0012 35.9366C16.833 33.1605 7.10328 24.0191 7.10328 16.4677V16.0247C7.10328 8.91281 12.8893 3.1268 20.0012 3.1268C27.113 3.1268 32.8991 8.91281 32.8991 16.0247V16.4677Z" fill="#80A05D"/>
</svg>
