<svg width="20" height="20" viewBox="0 0 20 20" fill="none" xmlns="http://www.w3.org/2000/svg">
<path d="M0.973108 2.61105L3.59318 0L9.03442 5.43222L6.92501 7.61073C7.27852 8.23831 8.04555 9.44045 9.35278 10.7476C10.6602 12.0551 11.8711 12.8308 12.5046 13.19L14.6404 11.0814L19.9967 16.4058L17.3909 19.0289C16.3949 20.025 14.8793 20.2831 13.6196 19.6713C11.6973 18.7377 8.7963 17.0151 5.89157 14.1104C2.98693 11.2057 1.26432 8.30463 0.330648 6.38237C0.109438 5.9269 0.00197601 5.43804 0.00197601 4.95233C0.00197601 4.09468 0.337172 3.24695 0.973108 2.61105ZM1.73506 5.70018C2.61639 7.51475 4.24443 10.2552 6.9956 13.0064C9.74684 15.7577 12.4873 17.3856 14.3018 18.2669C14.9633 18.5882 15.7611 18.4508 16.2851 17.9268L17.7891 16.4127L14.6366 13.2791L12.8171 15.0754L12.3303 14.8586C12.2512 14.8233 10.3684 13.9714 8.24868 11.8517C6.12751 9.73049 5.29329 7.8637 5.25884 7.78522L5.04775 7.30495L6.84314 5.45077L3.59209 2.20507L2.07631 3.71558C1.55112 4.24155 1.41389 5.03901 1.73506 5.70018Z" fill="#80A05D"/>
</svg>
