<svg width="20" height="20" viewBox="0 0 20 20" fill="none" xmlns="http://www.w3.org/2000/svg">
<path d="M9.99987 4.2998C7.95253 4.2998 6.28687 5.96547 6.28687 8.01281C6.28687 10.0601 7.95253 11.7258 9.99987 11.7258C12.0472 11.7258 13.7129 10.0601 13.7129 8.01281C13.7129 5.96547 12.0472 4.2998 9.99987 4.2998ZM9.99987 10.1625C8.81456 10.1625 7.85022 9.19812 7.85022 8.01281C7.85022 6.8275 8.81456 5.86316 9.99987 5.86316C11.1852 5.86316 12.1495 6.8275 12.1495 8.01281C12.1495 9.19812 11.1852 10.1625 9.99987 10.1625Z" fill="#80A05D"/>
<path d="M10.0001 0C5.58209 0 1.98779 3.59434 1.98779 8.01231V8.23379C1.98779 10.4682 3.26881 13.0719 5.79537 15.9726C7.62693 18.0754 9.43291 19.5416 9.50885 19.603L10.0001 20L10.4913 19.6031C10.5673 19.5417 12.3733 18.0754 14.2048 15.9726C16.7313 13.0719 18.0124 10.4682 18.0124 8.23383V8.01234C18.0124 3.59434 14.4181 0 10.0001 0ZM16.449 8.23383C16.449 12.0098 11.5838 16.5807 10.0001 17.9683C8.416 16.5803 3.55115 12.0095 3.55115 8.23383V8.01234C3.55115 4.45641 6.44416 1.5634 10.0001 1.5634C13.556 1.5634 16.449 4.45641 16.449 8.01234V8.23383Z" fill="#80A05D"/>
</svg>
