<?xml version="1.0" encoding="UTF-8" standalone="no"?>
<svg
   xmlns:dc="http://purl.org/dc/elements/1.1/"
   xmlns:cc="http://creativecommons.org/ns#"
   xmlns:rdf="http://www.w3.org/1999/02/22-rdf-syntax-ns#"
   xmlns:svg="http://www.w3.org/2000/svg"
   xmlns="http://www.w3.org/2000/svg"
   viewBox="0 0 42.297275 52.666664"
   height="52.666664"
   width="42.297276"
   id="svg3821"
   version="1.1">
  <metadata
     id="metadata3827">
    <rdf:RDF>
      <cc:Work
         rdf:about="">
        <dc:format>image/svg+xml</dc:format>
        <dc:type
           rdf:resource="http://purl.org/dc/dcmitype/StillImage" />
        <dc:title></dc:title>
      </cc:Work>
    </rdf:RDF>
  </metadata>
  <defs
     id="defs3825" />
  <path
     id="path3831"
     d="M 12.752535,44.776641 C 3.0216715,34.266148 -0.76729949,26.357345 0.12700551,18.423096 1.4120465,7.0222455 9.3572957,0 20.971635,0 27.372633,0 29.47927,0.63685027 33.682001,3.8424288 42.517274,10.581421 44.680939,20.522159 39.59789,31.022343 36.84226,36.714716 23.211752,52.666666 21.103404,52.666666 c -0.575353,0 -4.333244,-3.550512 -8.350869,-7.890025 z M 28.921296,39.424528 C 36.263652,30.601792 39.117432,23.736808 37.923757,17.768431 36.711273,11.706013 32.261804,6.3690921 26.961609,4.6198701 14.248748,0.4242476 1.9025895,10.960751 4.3355395,23.929492 5.4589837,29.917965 18.085815,47.333333 21.304251,47.333333 c 0.569398,0 3.997069,-3.558963 7.617045,-7.908805 z M 13.845676,27.036659 c -4.7468933,-6.77714 -0.621409,-15.703325 7.257728,-15.703325 8.43334,0 13.016053,11.935978 6.369992,16.591061 -4.431479,3.103928 -11.137841,2.667062 -13.62772,-0.887736 z m 10.482012,-1.845978 c 3.821726,-1.466534 2.183501,-9.857347 -1.924552,-9.857347 -5.97242,0 -7.977178,2.945862 -5.823747,8.557617 0.834862,2.175614 4.057192,2.716141 7.748299,1.29973 z"
     style="fill:#7f9f5c;stroke-width:1.33333325" />
</svg>
