<svg width="16" height="16" viewBox="0 0 16 16" fill="none" xmlns="http://www.w3.org/2000/svg">
<g clip-path="url(#clip0)">
<path d="M7.21251 11.2701C5.97214 11.1407 4.85376 10.8352 3.89625 10.0863C3.77744 9.99318 3.65477 9.90336 3.54635 9.7993C3.12725 9.39679 3.08503 8.9358 3.41665 8.46073C3.70035 8.0542 4.17659 7.94544 4.6716 8.17887C4.76746 8.22411 4.85878 8.28059 4.94626 8.34125C6.73074 9.56738 9.18216 9.60123 10.9733 8.39638C11.1508 8.26031 11.3405 8.14938 11.5603 8.09274C11.9878 7.98298 12.3865 8.13999 12.6159 8.51402C12.878 8.94116 12.8746 9.35808 12.5517 9.6897C12.0564 10.1981 11.4606 10.5659 10.7987 10.8227C10.1728 11.0653 9.48731 11.1875 8.80881 11.2686C8.91119 11.38 8.95945 11.4348 9.02347 11.4992C9.94478 12.4248 10.8701 13.3466 11.7884 14.2752C12.1013 14.5915 12.1666 14.9838 11.9944 15.3518C11.806 15.754 11.3844 16.0186 10.971 15.9903C10.7091 15.9722 10.5048 15.8418 10.3233 15.659C9.62807 14.9594 8.91974 14.2726 8.23856 13.5598C8.04032 13.3525 7.94497 13.3917 7.77002 13.5717C7.07057 14.2918 6.35973 15.0008 5.6447 15.7057C5.32363 16.0223 4.94156 16.0792 4.56922 15.8984C4.17341 15.7066 3.92155 15.3025 3.94099 14.8965C3.95439 14.6219 4.08946 14.4121 4.27798 14.2239C5.18974 13.3135 6.09899 12.4007 7.00857 11.4888C7.06873 11.4281 7.12487 11.3638 7.21251 11.2701Z" fill="#C4C4C4"/>
<path d="M7.96805 8.09863C5.75525 8.09109 3.94078 6.25667 3.95368 4.04036C3.96642 1.79958 5.78207 -0.00618427 8.01665 1.59188e-05C10.2558 0.00604853 12.053 1.83778 12.0417 4.10186C12.0303 6.31365 10.2033 8.10634 7.96805 8.09863ZM9.97909 4.04572C9.97523 2.94527 9.09883 2.0692 8.00056 2.0682C6.89307 2.06702 6.00879 2.95901 6.01734 4.06952C6.02555 5.16578 6.90949 6.03565 8.01078 6.03162C9.10872 6.02777 9.98277 5.146 9.97909 4.04572Z" fill="#C4C4C4"/>
</g>
<defs>
<clipPath id="clip0">
<rect width="16" height="16" fill="white"/>
</clipPath>
</defs>
</svg>
