<svg width="24" height="24" viewBox="0 0 24 24" fill="none" xmlns="http://www.w3.org/2000/svg">
<g clip-path="url(#clip0)">
<path d="M9.85926 0C4.41652 0 0.00427246 4.41225 0.00427246 9.85499C0.00427246 15.2977 4.41652 19.71 9.85926 19.71C15.302 19.71 19.7142 15.2977 19.7142 9.85499C19.7095 4.41418 15.3001 0.00471325 9.85926 0ZM9.85926 16.2822C6.30964 16.2822 3.43209 13.4046 3.43209 9.85499C3.43209 6.30537 6.30964 3.42782 9.85926 3.42782C13.4089 3.42782 16.2864 6.30537 16.2864 9.85499C16.2817 13.4027 13.4069 16.2774 9.85926 16.2822Z" fill="#9D9D9D"/>
<path d="M23.4934 21.0725L20.0656 17.6447C19.3959 16.975 18.3101 16.975 17.6404 17.6447C16.9707 18.3144 16.9707 19.4002 17.6404 20.0699L21.0682 23.4977C21.7379 24.1674 22.8237 24.1674 23.4934 23.4977C24.1631 22.828 24.1631 21.7423 23.4934 21.0725Z" fill="#9D9D9D"/>
</g>
<defs>
<clipPath id="clip0">
<rect width="24" height="24" fill="white"/>
</clipPath>
</defs>
</svg>
