<svg width="32" height="32" viewBox="0 0 32 32" fill="none" xmlns="http://www.w3.org/2000/svg">
<g clip-path="url(#clip0)">
<path d="M0.532762 27.2663H4.79947V31.533C4.79947 31.7484 4.92968 31.9432 5.12864 32.0257C5.19479 32.0531 5.26406 32.0664 5.33281 32.0664C5.47161 32.0664 5.60807 32.0119 5.7099 31.9101L11.1032 26.5168L11.4667 26.9569C11.5985 27.1163 11.8113 27.1858 12.0107 27.1335L13.9889 26.6246L15.7144 27.7168C15.8011 27.7718 15.9004 27.7996 15.9996 27.7996C16.0988 27.7996 16.198 27.7718 16.285 27.7168L18.0098 26.6246L19.9874 27.134C20.1874 27.1853 20.3996 27.1163 20.5314 26.9574L20.8952 26.5173L26.2882 31.9106C26.3913 32.0119 26.5278 32.0664 26.6663 32.0664C26.7354 32.0664 26.8046 32.0531 26.8708 32.0257C27.0697 31.9432 27.1997 31.7484 27.1997 31.533V27.2663H31.4664C31.682 27.2663 31.8766 27.1361 31.9594 26.9371C32.0419 26.7376 31.9961 26.5085 31.8435 26.3559L27.3151 21.8272C27.3161 21.8199 27.3192 21.8129 27.3197 21.8053L27.4499 19.767L29.0237 18.4657C29.1833 18.3339 29.2521 18.1217 29.2002 17.9217L28.6916 15.9435L29.7838 14.2182C29.8942 14.0438 29.8942 13.8214 29.7838 13.6474L28.6916 11.9226L29.2007 9.94501C29.2526 9.74501 29.1838 9.53277 29.0244 9.40099L27.4505 8.09968L27.3203 6.06163C27.307 5.85538 27.1762 5.67569 26.9843 5.59991L25.0856 4.84886L24.3346 2.95014C24.259 2.75821 24.0791 2.62748 23.8728 2.6142L21.8343 2.48399L20.533 0.910274C20.4012 0.750636 20.1895 0.682406 19.9889 0.733709L18.0103 1.24153L16.285 0.149067C16.1105 0.0386492 15.8886 0.0386492 15.7144 0.149067L13.9889 1.24153L12.0113 0.732147C11.8092 0.679802 11.5985 0.749074 11.4672 0.908711L10.1659 2.48243L8.12815 2.61264C7.92164 2.62592 7.74195 2.75665 7.66616 2.94858L6.91538 4.8473L5.01666 5.59835C4.82473 5.67413 4.694 5.85382 4.68072 6.06007L4.55051 8.09864L2.97654 9.39995C2.81716 9.53172 2.74841 9.74397 2.79997 9.94397L3.30883 11.9221L2.21663 13.6474C2.10621 13.8219 2.10621 14.0443 2.21663 14.2182L3.30883 15.943L2.79945 17.9206C2.74789 18.1206 2.81664 18.3329 2.97601 18.4646L4.54999 19.766L4.6802 21.8037C4.68072 21.8118 4.68384 21.8188 4.68489 21.8267L0.156196 26.3554C0.0038507 26.508 -0.0419831 26.7371 0.0405698 26.9366C0.122602 27.1361 0.317395 27.2663 0.532762 27.2663ZM26.6663 26.1996C26.3721 26.1996 26.133 26.4384 26.133 26.733V30.2455L21.5783 25.6908L21.8332 25.3824L23.8713 25.2525C24.0775 25.2389 24.2575 25.1085 24.333 24.9163L25.084 23.0176L26.4546 22.4754L30.1789 26.1996H26.6663ZM3.91639 17.8592L4.39842 15.9862C4.4354 15.8433 4.41119 15.6922 4.33228 15.5675L3.29763 13.9328L4.3328 12.2982C4.41171 12.1739 4.4354 12.0224 4.39895 11.8799L3.91743 10.0062L5.40755 8.7739C5.52057 8.67989 5.59062 8.54343 5.6 8.39682L5.72266 6.46606L7.52163 5.7546C7.65887 5.70017 7.76695 5.59184 7.82137 5.45486L8.53284 3.65588L10.4636 3.5327C10.6102 3.52306 10.7469 3.45379 10.8407 3.33999L12.0732 1.84987L13.9464 2.33216C14.0891 2.36888 14.2402 2.34492 14.3649 2.26602L15.9996 1.23085L17.6342 2.26602C17.7587 2.34492 17.9105 2.36888 18.0525 2.33216L19.9262 1.85039L21.1587 3.34077C21.2525 3.45379 21.389 3.52358 21.5358 3.53322L23.4663 3.65588L24.1778 5.45486C24.2322 5.59184 24.3405 5.70017 24.4775 5.7546L26.2765 6.46606L26.3997 8.39682C26.4093 8.54343 26.4786 8.67989 26.5924 8.7739L28.0825 10.0062L27.6002 11.8794C27.5635 12.0224 27.5875 12.1732 27.6664 12.2982L28.7018 13.9328L27.6664 15.5675C27.5875 15.6917 27.564 15.8433 27.6002 15.9857L28.082 17.8592L26.5919 19.0917C26.4786 19.1857 26.4088 19.3222 26.3992 19.4688L26.2765 21.3996L24.4775 22.111C24.3405 22.1655 24.2322 22.2735 24.1778 22.4108L23.4663 24.2098L21.5358 24.3329C21.389 24.3426 21.2525 24.4118 21.1587 24.5254L19.9262 26.0155L18.053 25.5335C17.9095 25.4954 17.7592 25.5207 17.6342 25.5996L15.9996 26.6348L14.3649 25.5996C14.2785 25.5447 14.1795 25.5168 14.0798 25.5168C14.0355 25.5168 13.9907 25.5223 13.947 25.534L12.0732 26.0155L10.8407 24.5254C10.7469 24.4124 10.6102 24.3426 10.4636 24.3329L8.53284 24.2098L7.82137 22.4108C7.76695 22.2735 7.65887 22.1655 7.52163 22.111L5.72266 21.3996L5.59948 19.4688C5.58984 19.3222 5.52057 19.1857 5.40703 19.0917L3.91639 17.8592ZM5.54401 22.4759L6.91433 23.0176L7.66512 24.9163C7.7409 25.1085 7.92059 25.2389 8.12711 25.2525L10.1654 25.3824L10.4204 25.6908L5.86615 30.2455V26.733C5.86615 26.4384 5.62734 26.1996 5.33281 26.1996H1.82027L5.54401 22.4759Z" fill="#C4C4C4"/>
<path d="M24.4148 17.3151L25.4041 17.7136C25.5416 17.3722 25.6612 17.0193 25.7604 16.6651L24.7325 16.3787C24.6445 16.6948 24.5375 17.0102 24.4148 17.3151Z" fill="#C4C4C4"/>
<path d="M23.6591 7.29807C23.4184 7.0202 23.1598 6.75301 22.8903 6.50275L22.165 7.28479C22.4062 7.50875 22.6377 7.74807 22.8536 7.99625L23.6591 7.29807Z" fill="#C4C4C4"/>
<path d="M14.222 23.9105C14.5838 23.9746 14.9528 24.0194 15.3197 24.0433L15.3908 22.9792C15.0622 22.9574 14.7319 22.9173 14.4077 22.8597L14.222 23.9105Z" fill="#C4C4C4"/>
<path d="M8.11497 9.45333L7.18736 8.92624C7.00506 9.24734 6.83918 9.58015 6.6936 9.91609L7.67278 10.3395C7.80299 10.0388 7.95169 9.74083 8.11497 9.45333Z" fill="#C4C4C4"/>
<path d="M23.1891 19.4576L24.0344 20.1084C24.2586 19.8164 24.4693 19.5099 24.6602 19.1969L23.7492 18.6417C23.5784 18.9222 23.3901 19.1969 23.1891 19.4576Z" fill="#C4C4C4"/>
<path d="M24.9401 12.4158L25.9924 12.2393C25.9315 11.8762 25.8495 11.513 25.7492 11.1598L24.7229 11.4518C24.812 11.7669 24.8857 12.0916 24.9401 12.4158Z" fill="#C4C4C4"/>
<path d="M7.01879 15.1862C6.974 14.8622 6.94639 14.5307 6.93676 14.2L5.87061 14.231C5.88128 14.5995 5.91201 14.97 5.96175 15.3323L7.01879 15.1862Z" fill="#C4C4C4"/>
<path d="M25.1661 9.6067C25.0088 9.27466 24.8317 8.94758 24.6398 8.63455L23.731 9.19289C23.9028 9.47284 24.0617 9.76581 24.2026 10.0635L25.1661 9.6067Z" fill="#C4C4C4"/>
<path d="M16.8744 22.9573L16.9757 24.0193C17.3416 23.9839 17.7096 23.9284 18.0697 23.854L17.8531 22.8097C17.5309 22.8769 17.202 22.9264 16.8744 22.9573Z" fill="#C4C4C4"/>
<path d="M25.0664 13.9328C25.0664 14.2641 25.0485 14.5964 25.0133 14.9216L26.0735 15.0367C26.1131 14.6734 26.1331 14.3018 26.1331 13.9221L25.8164 13.9049L25.0664 13.9328Z" fill="#C4C4C4"/>
<path d="M21.4323 21.192L22.0724 22.0459C22.3661 21.8251 22.651 21.5863 22.9192 21.335L22.1909 20.5563C21.9507 20.7808 21.6958 20.9951 21.4323 21.192Z" fill="#C4C4C4"/>
<path d="M21.5874 5.47777C21.2809 5.27464 20.9593 5.08635 20.6322 4.9176L20.1442 5.86605C20.4366 6.01631 20.7233 6.18507 20.9981 6.36632L21.5874 5.47777Z" fill="#C4C4C4"/>
<path d="M7.19849 11.745L6.16333 11.489C6.07479 11.8453 6.00552 12.2112 5.9563 12.576L7.0136 12.7177C7.05735 12.3909 7.11959 12.064 7.19849 11.745Z" fill="#C4C4C4"/>
<path d="M7.4967 19.4469C7.69723 19.7558 7.9165 20.0561 8.14853 20.3397L8.97457 19.6646C8.76702 19.4102 8.57093 19.1415 8.39124 18.8651L7.4967 19.4469Z" fill="#C4C4C4"/>
<path d="M13.8861 5.11342L13.6382 4.07617C13.2804 4.16133 12.9233 4.26758 12.5778 4.3918L12.9379 5.39624C13.2468 5.28478 13.566 5.18972 13.8861 5.11342Z" fill="#C4C4C4"/>
<path d="M16.3431 4.87228L16.3822 3.80613C16.0147 3.79233 15.6418 3.79884 15.2775 3.82436L15.3522 4.88843C15.679 4.86551 16.0142 4.86004 16.3431 4.87228Z" fill="#C4C4C4"/>
<path d="M11.5955 23.0613C11.9267 23.2214 12.2707 23.3649 12.6174 23.4876L12.9731 22.4816C12.6632 22.3717 12.3559 22.2438 12.0595 22.1008L11.5955 23.0613Z" fill="#C4C4C4"/>
<path d="M9.6168 7.49365L8.86523 6.73688C8.60403 6.99625 8.35428 7.27178 8.12329 7.55668L8.95221 8.22856C9.15872 7.97387 9.38216 7.72621 9.6168 7.49365Z" fill="#C4C4C4"/>
<path d="M19.0994 4.28242C18.7487 4.16992 18.388 4.07565 18.0286 4.00299L17.8169 5.04832C18.1385 5.11342 18.4606 5.1978 18.7742 5.29858L19.0994 4.28242Z" fill="#C4C4C4"/>
<path d="M9.29883 21.5339C9.57461 21.7771 9.86628 22.0081 10.1665 22.2199L10.7811 21.3477C10.5121 21.1584 10.2509 20.9516 10.004 20.7344L9.29883 21.5339Z" fill="#C4C4C4"/>
<path d="M11.5884 6.00954L11.0686 5.07828C10.7475 5.25745 10.4332 5.45589 10.1334 5.66917L10.7517 6.53845C11.0199 6.34756 11.3017 6.16943 11.5884 6.00954Z" fill="#C4C4C4"/>
<path d="M19.2749 22.3899L19.6606 23.3844C20.0035 23.2511 20.3426 23.0982 20.6692 22.9285L20.1767 21.9824C19.8851 22.1339 19.5817 22.2709 19.2749 22.3899Z" fill="#C4C4C4"/>
<path d="M7.34201 16.6336L6.32324 16.9503C6.43262 17.3013 6.56283 17.65 6.70997 17.9878L7.68758 17.5605C7.55581 17.2586 7.43966 16.9472 7.34201 16.6336Z" fill="#C4C4C4"/>
<path d="M8.55813 11.7263C8.49562 11.9216 8.55057 12.1349 8.69927 12.2757L11.9576 15.3583L11.1889 19.7065C11.1537 19.906 11.2342 20.1079 11.397 20.2282C11.5597 20.3487 11.7761 20.3664 11.9563 20.2748L15.9996 18.2117L20.0424 20.2748C20.1192 20.3136 20.202 20.3329 20.2851 20.3329C20.3971 20.3329 20.5085 20.2977 20.6025 20.2282C20.765 20.1079 20.8455 19.906 20.8103 19.7065L20.0418 15.3583L23.3 12.2757C23.4489 12.1349 23.5039 11.921 23.4414 11.7263C23.3789 11.5312 23.2104 11.3888 23.0078 11.3598L18.4921 10.7231L16.4754 6.75719C16.2931 6.39938 15.7069 6.39938 15.5246 6.75719L13.5079 10.7231L8.99224 11.3598C8.78886 11.3888 8.62037 11.5312 8.55813 11.7263ZM13.9319 11.7414C14.1043 11.7171 14.254 11.6101 14.3329 11.4549L15.9996 8.17648L17.6663 11.4549C17.7452 11.6101 17.8952 11.7171 18.0673 11.7414L21.7619 12.2622L19.0994 14.7812C18.9694 14.9044 18.9095 15.0849 18.9411 15.2612L19.5731 18.8378L16.2418 17.138C16.166 17.0992 16.0829 17.0794 15.9996 17.0794C15.9165 17.0794 15.8332 17.0992 15.7569 17.1375L12.4264 18.8378L13.0584 15.2612C13.0897 15.0849 13.03 14.9044 12.8998 14.7812L10.2376 12.2622L13.9319 11.7414Z" fill="#C4C4C4"/>
<path d="M15.4663 29.933H16.533V30.9996H15.4663V29.933Z" fill="#C4C4C4"/>
<path d="M17.5996 29.933H18.6663V30.9996H17.5996V29.933Z" fill="#C4C4C4"/>
<path d="M13.333 29.933H14.3997V30.9996H13.333V29.933Z" fill="#C4C4C4"/>
</g>
<defs>
<clipPath id="clip0">
<rect width="32" height="32" fill="white"/>
</clipPath>
</defs>
</svg>
