<svg width="16" height="10" viewBox="0 0 16 10" fill="none" xmlns="http://www.w3.org/2000/svg">
<path d="M15.3374 7.80709C14.861 7.23571 14.3004 6.74806 13.77 6.23024C13.2915 5.76348 13.2613 5.49272 13.646 4.954C14.0658 4.36604 14.5173 3.80063 14.9409 3.21532C15.3364 2.66831 15.7406 2.1228 15.9487 1.46785C16.0807 1.05117 15.964 0.867118 15.5367 0.794162C15.4631 0.781394 15.387 0.780731 15.312 0.780731L12.777 0.777747C12.4647 0.773104 12.2921 0.909234 12.1817 1.18597C12.0326 1.56004 11.8789 1.93377 11.7014 2.29474C11.2984 3.11318 10.8484 3.90426 10.2175 4.57413C10.0784 4.72187 9.92453 4.90857 9.69207 4.83163C9.40123 4.72551 9.31551 4.24632 9.32032 4.08433L9.31783 1.15828C9.26146 0.740274 9.16877 0.553903 8.75375 0.472656L6.12035 0.473154C5.76884 0.473154 5.59258 0.608952 5.40488 0.828816C5.29661 0.955826 5.26394 1.03823 5.48646 1.08035C5.92354 1.16325 6.16976 1.44613 6.23509 1.88436C6.33988 2.58458 6.33259 3.28761 6.27223 3.99064C6.25449 4.19592 6.21917 4.40069 6.13776 4.59237C6.01042 4.89365 5.80482 4.955 5.53471 4.76962C5.29014 4.60182 5.11836 4.36504 4.95023 4.12727C4.31866 3.23488 3.81476 2.27252 3.40389 1.26125C3.28517 0.969091 3.08039 0.792006 2.77083 0.787198C2.01025 0.775093 1.24952 0.773104 0.488948 0.787861C0.0313129 0.796483 -0.105149 1.01867 0.0812217 1.43352C0.909608 3.27617 1.83168 5.06758 3.03529 6.69948C3.65327 7.53699 4.36277 8.27633 5.27936 8.80029C6.31816 9.39422 7.43639 9.57297 8.61413 9.51792C9.16562 9.49205 9.33126 9.34863 9.3568 8.79897C9.37404 8.42291 9.41665 8.04901 9.6022 7.71109C9.78426 7.37947 10.06 7.3163 10.3779 7.52256C10.5369 7.62586 10.6708 7.75735 10.7974 7.89597C11.1077 8.23554 11.407 8.5854 11.7292 8.91354C12.1333 9.32475 12.612 9.56766 13.2139 9.51808L15.5438 9.51858C15.9192 9.49404 16.1139 9.03375 15.8983 8.61475C15.7469 8.32127 15.5483 8.05995 15.3374 7.80709Z" fill="#C4C4C4"/>
</svg>
