<svg width="16" height="12" viewBox="0 0 16 12" fill="none" xmlns="http://www.w3.org/2000/svg">
<path d="M15.7235 2.21778C15.5276 1.36687 14.8316 0.739092 13.9938 0.645446C12.0097 0.423965 10.0015 0.422808 8.00256 0.423965C6.00328 0.422808 3.99476 0.423965 2.01067 0.645446C1.17331 0.739092 0.477812 1.36687 0.28193 2.21778C0.00313807 3.42957 0 4.75235 0 5.99998C0 7.2476 0 8.57022 0.278792 9.78184C0.474343 10.6326 1.17 11.2604 2.00787 11.3542C3.99178 11.5758 6.00014 11.577 7.99942 11.5758C9.99903 11.577 12.0069 11.5758 13.9906 11.3542C14.828 11.2605 15.5242 10.6327 15.7201 9.78184C15.999 8.57005 16 7.24744 16 5.99998C16 4.75235 16.0023 3.42957 15.7235 2.21778ZM5.93524 8.48334C5.93524 6.71347 5.93524 4.9621 5.93524 3.19207C7.63095 4.07684 9.31543 4.95566 11.0219 5.84588C9.32071 6.72817 7.63541 7.60171 5.93524 8.48334Z" fill="#C4C4C4"/>
</svg>
