<svg width="314" height="113" viewBox="0 0 314 113" fill="none" xmlns="http://www.w3.org/2000/svg">
<path d="M83.6555 90.75H83.1555V91.25V109.5H51.7555V91.25V90.75H51.2555H0.605469V62.3056L40.5682 4.29999H83.0055V63.35V63.85H83.5055H97.4055V90.75H83.6555ZM52.2055 36.5V36H51.7055H51.1055H50.8362L50.688 36.2248L32.988 63.0748L32.477 63.85H33.4055H51.7055H52.2055V63.35V36.5ZM109.978 41.5339L109.978 41.5322C110.771 36.775 112.209 31.8626 114.296 26.7942C116.475 21.7432 119.244 17.3941 122.6 13.741C126.042 10.1041 130.576 7.14169 136.222 4.86368L136.226 4.86199C141.955 2.49146 148.538 1.29999 155.985 1.29999C163.432 1.29999 170.015 2.49146 175.744 4.86205L175.75 4.86478C181.497 7.14356 186.028 10.1055 189.367 13.7383C192.725 17.3929 195.496 21.7442 197.676 26.798C199.861 31.8635 201.297 36.7712 201.99 41.5221L201.99 41.5222L201.992 41.5339C202.787 46.2038 203.185 51.1256 203.185 56.3C203.185 61.4743 202.787 66.4973 201.991 71.3694L201.99 71.3778C201.297 76.1294 199.86 81.0882 197.674 86.2552C195.493 91.4099 192.722 95.8618 189.362 99.6166C186.021 103.35 181.487 106.462 175.74 108.939C170.012 111.309 163.43 112.5 155.985 112.5C148.54 112.5 141.959 111.309 136.231 108.94C130.585 106.463 126.048 103.351 122.605 99.6138C119.247 95.8605 116.477 91.4108 114.297 86.259C112.21 81.0898 110.771 76.1268 109.978 71.3694C109.183 66.4973 108.785 61.4743 108.785 56.3C108.785 51.1256 109.183 46.2038 109.978 41.5339ZM299.714 90.75H299.214V91.25V109.5H267.814V91.25V90.75H267.314H216.664V62.3056L256.627 4.29999H299.064V63.35V63.85H299.564H313.464V90.75H299.714ZM268.264 36.5V36H267.764H267.164H266.895L266.747 36.2248L249.047 63.0748L248.536 63.85H249.464H267.764H268.264V63.35V36.5ZM167.285 56.3C167.285 48.029 166.385 41.7582 164.543 37.5375C163.62 35.4216 162.449 33.7964 161.013 32.6995C159.571 31.5976 157.887 31.05 155.985 31.05C154.082 31.05 152.399 31.5976 150.956 32.6995C149.52 33.7964 148.35 35.4216 147.426 37.5375C145.585 41.7582 144.685 48.029 144.685 56.3C144.685 64.8699 145.585 71.3632 147.424 75.7315C148.346 77.9208 149.514 79.6029 150.949 80.7389C152.392 81.8809 154.078 82.45 155.985 82.45C157.892 82.45 159.578 81.8809 161.02 80.7389C162.455 79.6029 163.624 77.9208 164.546 75.7315C166.385 71.3632 167.285 64.8699 167.285 56.3Z" fill="#80A05D" stroke="#80A05D"/>
</svg>
