<svg width="32" height="32" viewBox="0 0 32 32" fill="none" xmlns="http://www.w3.org/2000/svg">
<g clip-path="url(#clip0)">
<path d="M22.2337 25.0367L15.5 21.7671C14.7666 21.4172 13.8869 21.6687 13.4495 22.3536L11.908 24.8022C11.7654 25.0352 11.4694 25.1226 11.2228 25.0047C10.3187 24.5517 9.48374 23.9717 8.74358 23.2825C8.04535 22.538 7.45802 21.6963 7.00007 20.784C6.88006 20.537 6.96623 20.2391 7.1995 20.0941L9.65218 18.5511C10.3361 18.1116 10.5855 17.2317 10.2333 16.4988L6.96337 9.76636C6.778 9.38158 6.44502 9.08817 6.03993 8.95279C5.62989 8.81351 5.18107 8.84579 4.7955 9.04235C4.30501 9.28655 0 11.5169 0 14.4051V14.9383C0.079925 19.4365 1.90024 23.7288 5.07849 26.913L5.08708 26.9213C8.27132 30.0998 12.5636 31.9202 17.0618 32.0001H17.5949C20.4821 32.0001 22.7135 27.6956 22.9551 27.2072C23.1525 26.8208 23.185 26.371 23.0457 25.9602C22.9106 25.5553 22.6177 25.2223 22.2337 25.0367ZM15.0358 22.7275L21.7643 25.9958C21.8916 26.0573 21.9887 26.1674 22.0338 26.3015C22.0804 26.4423 22.0684 26.5959 22.0007 26.7279C21.925 26.8794 21.837 27.0429 21.743 27.2121L14.0301 23.4312L14.35 22.9248C14.4969 22.6965 14.79 22.6122 15.0358 22.7275ZM5.27375 9.99676C5.40574 9.92855 5.5596 9.9171 5.70019 9.96474C5.83374 10.009 5.94387 10.1051 6.00583 10.2313L9.2726 16.9573C9.39053 17.2028 9.30801 17.4977 9.07942 17.6461L8.56994 17.9661L4.78691 10.2558C4.95847 10.1616 5.12119 10.073 5.27375 9.99676ZM17.5949 30.9337H17.0618C8.29502 30.7734 1.22673 23.7051 1.06636 14.9383V14.4051C1.06636 13.0631 2.49538 11.7343 3.87363 10.814L7.65926 18.5409L6.62857 19.1902C5.93267 19.6271 5.67962 20.5187 6.04202 21.2558C6.55203 22.2714 7.20731 23.207 7.98703 24.0336C8.80945 24.8045 9.73887 25.4525 10.7461 25.9581C11.4826 26.3189 12.3728 26.064 12.807 25.3684L13.4558 24.3387L21.1827 28.1244C20.2655 29.5042 18.9365 30.9337 17.5949 30.9337Z" fill="#C4C4C4"/>
<path d="M21.8604 0.00928158C18.2026 0.00667816 14.828 1.97773 13.033 5.16483C11.2379 8.35194 11.3017 12.2594 13.1998 15.3861L12.0637 19.9364L16.614 18.8C20.2788 21.0241 24.947 20.7005 28.27 17.9921C31.593 15.2835 32.8512 10.7765 31.4121 6.73834C29.9726 2.70018 26.1474 0.00537646 21.8604 0.00928158ZM21.8604 19.2038C20.1346 19.2053 18.445 18.7109 16.9925 17.7789L16.7988 17.6547L13.5289 18.4712L14.3451 15.201L14.2209 15.0076C11.9999 11.5169 12.4256 6.96536 15.2555 3.94721C18.0852 0.92907 22.6 0.211307 26.2263 2.20318C29.8524 4.1948 31.6688 8.39021 30.6396 12.3974C29.6105 16.4046 25.9975 19.2056 21.8604 19.2038Z" fill="#C4C4C4"/>
<path d="M14.3959 8.54015H15.4622V8.00697H16.5286V8.80674L14.3959 10.4063V12.2724H17.595V11.2061H15.4622V10.9395L17.595 9.33992V6.94061H14.3959V8.54015Z" fill="#C4C4C4"/>
<path d="M21.3273 6.94061H20.2609V10.1397H19.1945V6.94061H18.1282V11.2061H20.2609V12.2724H21.3273V11.2061H22.3936V10.1397H21.3273V6.94061Z" fill="#C4C4C4"/>
<path d="M22.4133 13.7298L25.0779 4.13181L26.1058 4.41714L23.4414 14.0152L22.4133 13.7298Z" fill="#C4C4C4"/>
<path d="M26.1259 6.94061V8.00697H28.1268L27.2045 12.1566L28.2463 12.388L29.4567 6.94061H26.1259Z" fill="#C4C4C4"/>
</g>
<defs>
<clipPath id="clip0">
<rect width="32" height="32" fill="white"/>
</clipPath>
</defs>
</svg>
