<svg width="40" height="40" viewBox="0 0 40 40" fill="none" xmlns="http://www.w3.org/2000/svg">
<path d="M1.945 5.2221L7.18514 0L18.0676 10.8644L13.8488 15.2215C14.5558 16.4766 16.0899 18.8809 18.7043 21.4953C21.3191 24.1101 23.741 25.6617 25.0081 26.3799L29.2796 22.1628L39.9922 32.8117L34.7806 38.0579C32.7885 40.05 29.7574 40.5662 27.238 39.3427C23.3935 37.4755 17.5914 34.0302 11.7819 28.2207C5.97264 22.4114 2.52742 16.6093 0.660076 12.7647C0.217655 11.8538 0.00273132 10.8761 0.00273132 9.90467C0.00273132 8.18936 0.673122 6.49389 1.945 5.2221ZM3.4689 11.4004C5.23155 15.0295 8.48764 20.5104 13.99 26.0128C19.4925 31.5153 24.9733 34.7713 28.6023 36.5338C29.9253 37.1764 31.521 36.9016 32.5691 35.8535L35.577 32.8255L29.2719 26.5582L25.6329 30.1507L24.6593 29.7171C24.5011 29.6467 20.7357 27.9428 16.4961 23.7033C12.2538 19.461 10.5854 15.7274 10.5165 15.5704L10.0943 14.6099L13.6851 10.9015L7.18295 4.41015L4.1514 7.43116C3.10101 8.48311 2.82656 10.078 3.4689 11.4004Z" fill="#80A05D"/>
</svg>
